<?xml version="1.0" encoding="UTF-8" standalone="no"?>
<!-- Created with Inkscape (http://www.inkscape.org/) -->

<svg
   xmlns:osb="http://www.openswatchbook.org/uri/2009/osb"
   xmlns:dc="http://purl.org/dc/elements/1.1/"
   xmlns:cc="http://creativecommons.org/ns#"
   xmlns:rdf="http://www.w3.org/1999/02/22-rdf-syntax-ns#"
   xmlns:svg="http://www.w3.org/2000/svg"
   xmlns="http://www.w3.org/2000/svg"
   xmlns:xlink="http://www.w3.org/1999/xlink"
   xmlns:sodipodi="http://sodipodi.sourceforge.net/DTD/sodipodi-0.dtd"
   xmlns:inkscape="http://www.inkscape.org/namespaces/inkscape"
   width="1920"
   height="1200"
   viewBox="0 0 1920 1200"
   id="svg2"
   version="1.1"
   inkscape:version="0.91 r13725"
   sodipodi:docname="cctan.svg">
  <defs
     id="defs4">
    <linearGradient
       id="linearGradient6609"
       osb:paint="solid">
      <stop
         style="stop-color:#f7ff00;stop-opacity:1;"
         offset="0"
         id="stop6611" />
    </linearGradient>
    <linearGradient
       inkscape:collect="always"
       id="linearGradient6144">
      <stop
         style="stop-color:#ffffff;stop-opacity:1;"
         offset="0"
         id="stop6146" />
      <stop
         style="stop-color:#ffffff;stop-opacity:0;"
         offset="1"
         id="stop6148" />
    </linearGradient>
    <radialGradient
       inkscape:collect="always"
       xlink:href="#linearGradient6144"
       id="radialGradient6150"
       cx="1124.9407"
       cy="442.41005"
       fx="1124.9407"
       fy="442.41005"
       r="387.55833"
       gradientTransform="matrix(1,0,0,0.25594973,0,329.17532)"
       gradientUnits="userSpaceOnUse" />
    <filter
       inkscape:collect="always"
       style="color-interpolation-filters:sRGB"
       id="filter6894"
       x="-0.11034766"
       width="1.2206953"
       y="-0.096246273"
       height="1.1924925">
      <feGaussianBlur
         inkscape:collect="always"
         stdDeviation="11.283049"
         id="feGaussianBlur6896" />
    </filter>
    <linearGradient
       inkscape:collect="always"
       xlink:href="#linearGradient6609"
       id="linearGradient6613"
       x1="698.86907"
       y1="442.41004"
       x2="1551.0124"
       y2="442.41004"
       gradientUnits="userSpaceOnUse" />
    <filter
       inkscape:collect="always"
       style="color-interpolation-filters:sRGB"
       id="filter6699"
       x="-0.038194623"
       width="1.0763892"
       y="-0.1538925"
       height="1.307785">
      <feGaussianBlur
         inkscape:collect="always"
         stdDeviation="12.208221"
         id="feGaussianBlur6701" />
    </filter>
    <filter
       inkscape:collect="always"
       style="color-interpolation-filters:sRGB"
       id="filter8989"
       x="-0.10737702"
       width="1.214754"
       y="-0.1359862"
       height="1.2719724">
      <feGaussianBlur
         inkscape:collect="always"
         stdDeviation="15.753174"
         id="feGaussianBlur8991" />
    </filter>
    <filter
       inkscape:collect="always"
       style="color-interpolation-filters:sRGB"
       id="filter9524"
       x="-0.0684"
       width="1.1368"
       y="-0.0684"
       height="1.1368">
      <feGaussianBlur
         inkscape:collect="always"
         stdDeviation="7.0455922"
         id="feGaussianBlur9526" />
    </filter>
    <filter
       inkscape:collect="always"
       style="color-interpolation-filters:sRGB"
       id="filter9583"
       x="-0.1164"
       width="1.2328"
       y="-0.1164"
       height="1.2328">
      <feGaussianBlur
         inkscape:collect="always"
         stdDeviation="11.989867"
         id="feGaussianBlur9585" />
    </filter>
    <filter
       inkscape:collect="always"
       style="color-interpolation-filters:sRGB"
       id="filter9622"
       x="-0.0648"
       width="1.1296"
       y="-0.0648"
       height="1.1296">
      <feGaussianBlur
         inkscape:collect="always"
         stdDeviation="6.6747715"
         id="feGaussianBlur9624" />
    </filter>
    <filter
       inkscape:collect="always"
       style="color-interpolation-filters:sRGB"
       id="filter9657"
       x="-0.0816"
       width="1.1632"
       y="-0.0816"
       height="1.1632">
      <feGaussianBlur
         inkscape:collect="always"
         stdDeviation="8.4052679"
         id="feGaussianBlur9659" />
    </filter>
    <filter
       inkscape:collect="always"
       style="color-interpolation-filters:sRGB"
       id="filter9852"
       x="-0.058453682"
       width="1.1169074"
       y="-0.064217099"
       height="1.1284342">
      <feGaussianBlur
         inkscape:collect="always"
         stdDeviation="11.056442"
         id="feGaussianBlur9854" />
    </filter>
  </defs>
  <sodipodi:namedview
     id="base"
     pagecolor="#ffffff"
     bordercolor="#666666"
     borderopacity="1.0"
     inkscape:pageopacity="0.0"
     inkscape:pageshadow="2"
     inkscape:zoom="0.54"
     inkscape:cx="1019.4144"
     inkscape:cy="658.97088"
     inkscape:document-units="px"
     inkscape:current-layer="layer2"
     showgrid="false"
     units="px"
     inkscape:object-nodes="true"
     inkscape:window-width="1280"
     inkscape:window-height="959"
     inkscape:window-x="0"
     inkscape:window-y="0"
     inkscape:window-maximized="1" />
  <metadata
     id="metadata7">
    <rdf:RDF>
      <cc:Work
         rdf:about="">
        <dc:format>image/svg+xml</dc:format>
        <dc:type
           rdf:resource="http://purl.org/dc/dcmitype/StillImage" />
        <dc:title />
      </cc:Work>
    </rdf:RDF>
  </metadata>
  <g
     inkscape:label="Livello 1"
     inkscape:groupmode="layer"
     id="layer1"
     transform="translate(0,147.63795)"
     style="display:inline;opacity:1">
    <rect
       style="fill:#000000"
       id="rect3336"
       width="1822.8572"
       height="1108.5714"
       x="51.42857"
       y="-107.63795" />
    <path
       inkscape:connector-curvature="0"
       id="path6135"
       d="m 422.21124,303.54266 0,281.35445 245.40002,-141.68177 z"
       style="fill:#000000;fill-opacity:1;fill-rule:evenodd;stroke:#ffff34;stroke-width:20;stroke-linecap:butt;stroke-linejoin:miter;stroke-miterlimit:4;stroke-dasharray:none;stroke-opacity:1;filter:url(#filter6894);opacity:1" />
    <g
       style="font-style:italic;font-variant:normal;font-weight:bold;font-stretch:normal;font-size:270.77816772px;line-height:125%;font-family:Subspace;-inkscape-font-specification:'Subspace, Bold Italic';text-align:start;letter-spacing:0px;word-spacing:0px;writing-mode:lr-tb;text-anchor:start;display:inline;opacity:1;fill:#000000;fill-opacity:1;stroke:url(#linearGradient6613);stroke-width:14;stroke-linecap:butt;stroke-linejoin:miter;stroke-miterlimit:4;stroke-dasharray:none;stroke-opacity:1;filter:url(#filter6699);image-rendering:optimizeQuality"
       id="text4836">
      <path
         d="m 808.54809,493.44539 49.05209,-15.07261 -11.63499,43.36681 q -1.85103,6.87523 -9.78398,11.37057 -7.93296,4.49534 -16.92364,4.49534 l -59.49715,0 q -9.1229,0 -13.61824,-4.62756 -4.36313,-4.75977 -4.75977,-10.8417 l 42.57352,-159.05573 q 1.85102,-6.87523 9.78397,-11.37057 7.93296,-4.49534 16.92364,-4.49534 l 59.49716,0 q 8.99068,0 14.54374,4.49534 4.23091,3.3054 4.23091,8.06517 0,1.58659 -0.52886,3.3054 l -7.53631,28.2942 -49.0521,15.07261 9.25512,-34.1117 -20.7579,0 5.55307,2.11546 -37.02045,138.16561 14.54374,0 5.15643,-19.1713 z"
         style="stroke:url(#linearGradient6613);stroke-width:14;stroke-miterlimit:4;stroke-dasharray:none;stroke-opacity:1"
         id="path6704" />
      <path
         d="m 921.19603,493.44539 49.0521,-15.07261 -11.635,43.36681 q -1.85102,6.87523 -9.78397,11.37057 -7.93296,4.49534 -16.92364,4.49534 l -59.49715,0 q -9.1229,0 -13.61824,-4.62756 -4.36313,-4.75977 -4.75977,-10.8417 l 42.57352,-159.05573 q 1.85102,-6.87523 9.78397,-11.37057 7.93296,-4.49534 16.92364,-4.49534 l 59.49715,0 q 8.99069,0 14.54375,4.49534 4.23091,3.3054 4.23091,8.06517 0,1.58659 -0.5289,3.3054 l -7.53627,28.2942 -49.0521,15.07261 9.25512,-34.1117 -20.7579,0 5.55307,2.11546 -37.02046,138.16561 14.54375,0 5.15642,-19.1713 z"
         style="stroke:url(#linearGradient6613);stroke-width:14;stroke-miterlimit:4;stroke-dasharray:none;stroke-opacity:1"
         id="path6706" />
      <path
         d="m 1085.1438,445.05437 -97.83981,0 6.74301,-25.12102 97.8398,0 -6.743,25.12102 z"
         style="stroke:url(#linearGradient6613);stroke-width:14;stroke-miterlimit:4;stroke-dasharray:none;stroke-opacity:1"
         id="path6708" />
      <path
         d="m 1146.3597,537.6055 -44.9534,0 44.2923,-165.26988 -33.054,0 6.6108,-25.12102 111.0614,0 -6.6108,25.12102 -39.2681,0 5.553,2.11546 -43.6312,163.15442 z"
         style="stroke:url(#linearGradient6613);stroke-width:14;stroke-miterlimit:4;stroke-dasharray:none;stroke-opacity:1"
         id="path6710" />
      <path
         d="m 1291.1361,372.33562 -14.5437,0 -19.4358,72.45432 15.7337,-4.36313 18.2458,-68.09119 z m 47.4655,-9.65176 -46.8044,174.92164 -44.9534,0 19.1713,-71.66102 -22.6089,6.87523 6.2141,0 -17.3203,64.78579 -44.9534,0 48.2588,-180.07806 -7.6685,-10.31284 92.2867,0 q 9.1229,0 13.486,4.75977 4.4954,4.62756 4.892,10.70949 z"
         style="stroke:url(#linearGradient6613);stroke-width:14;stroke-miterlimit:4;stroke-dasharray:none;stroke-opacity:1"
         id="path6712" />
      <path
         d="m 1344.948,537.6055 -44.9534,0 48.2588,-180.07806 -7.6685,-10.31284 92.2867,0 q 8.9907,0 14.5437,4.49534 4.2309,3.3054 4.2309,8.06517 0,1.58659 -0.5288,3.3054 l -46.6722,174.52499 -44.9535,0 44.2924,-165.26988 -20.7579,0 5.553,2.11546 -43.6312,163.15442 z"
         style="stroke:url(#linearGradient6613);stroke-width:14;stroke-miterlimit:4;stroke-dasharray:none;stroke-opacity:1"
         id="path6714" />
      <path
         d="m 1424.6742,492.65209 44.9534,0 -12.0317,44.95341 -44.9534,0 12.0317,-44.95341 z m 38.8715,-145.43749 44.9534,0 -33.054,123.48965 -24.0633,7.40409 -22.8734,0 35.0373,-130.89374 z"
         style="stroke:url(#linearGradient6613);stroke-width:14;stroke-miterlimit:4;stroke-dasharray:none;stroke-opacity:1"
         id="path6716" />
    </g>
    <path
       style="opacity:1;fill:#000000;stroke:#ff0000;stroke-width:10;stroke-miterlimit:4;stroke-dasharray:none;stroke-opacity:1;filter:url(#filter8989)"
       d="m 90.383025,-162.37551 0,30.81055 142.326175,0 0,216.404299 104.88672,0 0,-247.214849 -247.212895,0 z M 232.7092,84.839339 l -142.326175,0 0,-216.404299 -104.888667,0 0,247.21484 247.214842,0 0,-30.810541 z"
       id="rect6718"
       inkscape:connector-curvature="0" />
    <rect
       style="display:inline;opacity:1;fill:#000000;stroke:#ffff00;stroke-width:10;stroke-miterlimit:4;stroke-dasharray:none;stroke-opacity:1"
       id="rect6718-7"
       width="247.21376"
       height="247.21376"
       x="1540.1138"
       y="720.4942" />
    <rect
       style="display:inline;opacity:1;fill:#000000;stroke:#ff0000;stroke-width:10;stroke-miterlimit:4;stroke-dasharray:none;stroke-opacity:1;filter:url(#filter9583)"
       id="rect6718-32"
       width="247.21376"
       height="247.21376"
       x="1731.2017"
       y="84.100319" />
    <path
       style="display:inline;opacity:1;fill:#000000;stroke:#ffffff;stroke-width:10;stroke-miterlimit:4;stroke-dasharray:none;stroke-opacity:1"
       d="m -22.926215,754.16384 0,247.21286 206.742185,0 0,-81.21287 40.4707,0 0,-165.99999 -247.212885,0 z m 247.212885,165.99999 0,81.21287 -40.4707,0 0,166.002 247.21484,0 0,-247.21487 -206.74414,0 z"
       id="rect6718-6"
       inkscape:connector-curvature="0" />
    <rect
       style="display:inline;opacity:1;fill:#000000;stroke:#00da00;stroke-width:10;stroke-miterlimit:4;stroke-dasharray:none;stroke-opacity:1"
       id="rect6718-7-6"
       width="247.21376"
       height="247.21376"
       x="1141.2079"
       y="-213.83742" />
    <rect
       style="display:inline;opacity:1;fill:#000000;stroke:#0051ff;stroke-width:10;stroke-miterlimit:4;stroke-dasharray:none;stroke-opacity:1"
       id="rect6718-7-7"
       width="247.21376"
       height="247.21376"
       x="768.98572"
       y="954.68109" />
  </g>
  <g
     inkscape:groupmode="layer"
     id="layer2"
     inkscape:label="Livello 2"
     style="display:inline;opacity:1"
     sodipodi:insensitive="true">
    <path
       style="fill:#000000;fill-opacity:1;fill-rule:evenodd;stroke:#ffffff;stroke-width:8;stroke-linecap:butt;stroke-linejoin:miter;stroke-miterlimit:4;stroke-dasharray:none;stroke-opacity:1"
       d="m 422.21124,303.54266 0,281.35445 245.40002,-141.68177 z"
       id="path3346"
       inkscape:connector-curvature="0"
       transform="translate(0,147.63795)" />
    <text
       transform="translate(0,147.63795)"
       xml:space="preserve"
       style="font-style:italic;font-variant:normal;font-weight:bold;font-stretch:normal;font-size:270.77816772px;line-height:125%;font-family:Subspace;-inkscape-font-specification:'Subspace, Bold Italic';text-align:start;letter-spacing:0px;word-spacing:0px;writing-mode:lr-tb;text-anchor:start;fill:#000000;fill-opacity:1;stroke:#ffffff;stroke-width:8;stroke-linecap:butt;stroke-linejoin:miter;stroke-miterlimit:4;stroke-dasharray:none;stroke-opacity:1"
       x="740.58911"
       y="534.96118"
       id="text4588"
       sodipodi:linespacing="125%"><tspan
         sodipodi:role="line"
         id="tspan4590"
         x="740.58911"
         y="534.96118"
         style="stroke:#ffffff;stroke-width:8;stroke-miterlimit:4;stroke-dasharray:none;stroke-opacity:1">CC-TAN! </tspan></text>
    <path
       transform="translate(0,147.63795)"
       inkscape:connector-curvature="0"
       id="path8886"
       d="m 90.383025,-162.37551 0,30.81055 142.326175,0 0,216.404299 104.88672,0 0,-247.214849 -247.212895,0 z M 232.7092,84.839339 l -142.326175,0 0,-216.404299 -104.888667,0 0,247.21484 247.214842,0 0,-30.810541 z"
       style="display:inline;opacity:1;fill:#000000;stroke:#ff0000;stroke-width:10;stroke-miterlimit:4;stroke-dasharray:none;stroke-opacity:1" />
    <rect
       transform="translate(0,147.63795)"
       y="-213.83742"
       x="1141.2079"
       height="247.21376"
       width="247.21376"
       id="rect8993"
       style="display:inline;opacity:1;fill:#000000;stroke:#00fa00;stroke-width:10;stroke-miterlimit:4;stroke-dasharray:none;stroke-opacity:1;filter:url(#filter9524)" />
    <rect
       transform="translate(0,147.63795)"
       y="84.100319"
       x="1731.2017"
       height="247.21376"
       width="247.21376"
       id="rect9528"
       style="display:inline;opacity:1;fill:#000000;stroke:#ff0000;stroke-width:10;stroke-miterlimit:4;stroke-dasharray:none;stroke-opacity:1" />
    <rect
       transform="translate(0,147.63795)"
       y="720.4942"
       x="1540.1138"
       height="247.21376"
       width="247.21376"
       id="rect9587"
       style="display:inline;opacity:1;fill:#000000;stroke:#ffff00;stroke-width:10;stroke-miterlimit:4;stroke-dasharray:none;stroke-opacity:1;filter:url(#filter9622)" />
    <rect
       transform="translate(0,147.63795)"
       y="954.68109"
       x="768.98572"
       height="247.21376"
       width="247.21376"
       id="rect9626"
       style="display:inline;opacity:1;fill:#000000;stroke:#0051ff;stroke-width:10;stroke-miterlimit:4;stroke-dasharray:none;stroke-opacity:1;filter:url(#filter9657)" />
    <path
       transform="translate(0,147.63795)"
       inkscape:connector-curvature="0"
       id="path9661"
       d="m -22.926215,754.16384 0,247.21286 206.742185,0 0,-81.21287 40.4707,0 0,-165.99999 -247.212885,0 z m 247.212885,165.99999 0,81.21287 -40.4707,0 0,166.002 247.21484,0 0,-247.21487 -206.74414,0 z"
       style="display:inline;opacity:0.726;fill:#000000;stroke:#ffffff;stroke-width:10;stroke-miterlimit:4;stroke-dasharray:none;stroke-opacity:1;filter:url(#filter9852)" />
  </g>
</svg>
