<?xml version="1.0" encoding="utf-8"?>
<!-- Generator: Adobe Illustrator 22.1.0, SVG Export Plug-In . SVG Version: 6.00 Build 0)  -->
<svg version="1.1" id="Livello_1" xmlns="http://www.w3.org/2000/svg" xmlns:xlink="http://www.w3.org/1999/xlink" x="0px" y="0px"
	 viewBox="0 0 841.9 595.3" style="enable-background:new 0 0 841.9 595.3;" xml:space="preserve">
<style type="text/css">
	.st0{fill:#020202;stroke:#000000;stroke-width:0.75;stroke-miterlimit:10;}
	.st1{fill:none;stroke:#FFFFFF;stroke-miterlimit:10;}
	.st2{fill:none;stroke:#7B489C;stroke-miterlimit:10;}
	.st3{fill:none;stroke:#4E62AD;stroke-width:2;stroke-miterlimit:10;}
	.st4{fill:none;stroke:#6B1818;stroke-miterlimit:10;}
	.st5{fill:none;stroke:#41C5E8;stroke-miterlimit:10;}
	.st6{fill:none;stroke:#AED13F;stroke-miterlimit:10;}
	.st7{fill:none;}
	.st8{fill:none;stroke:#F1B57D;stroke-width:2;stroke-miterlimit:10;}
	.st9{opacity:0.1;fill:none;stroke:#AED13F;stroke-width:5;stroke-miterlimit:10;enable-background:new    ;}
</style>
<rect y="0" class="st0" width="841.9" height="595.3"/>
<g>
	<g>
		
			<image style="overflow:visible;enable-background:new    ;" width="1042" height="1083" xlink:href="1F0D6E0D.png"  transform="matrix(0.2393 0 0 0.2393 158.365 167.2833)">
		</image>
	</g>
	<g>
		<path class="st1" d="M231.3,241.1c0,37.2,0,74.3,0,111.5c34.2-18.6,68.3-37.2,102.5-55.7C299.7,278.3,265.5,259.7,231.3,241.1z"/>
	</g>
</g>
<rect x="28" y="475" class="st2" width="92" height="92"/>
<rect x="712" y="1.1" class="st3" width="92" height="92"/>
<rect x="420.9" y="502.9" class="st1" width="92" height="92"/>
<rect x="459.9" y="456.9" class="st4" width="92" height="92"/>
<rect x="92.3" y="49.5" class="st5" width="92" height="92"/>
<rect x="361.8" y="0" class="st6" width="92" height="78.9"/>
<rect x="60" y="26.5" class="st1" width="92" height="92"/>
<rect x="749" y="52.1" class="st3" width="92" height="92"/>
<g>
	
		<image style="overflow:visible;enable-background:new    ;" width="700" height="700" xlink:href="1F0D6E15.png"  transform="matrix(0.2373 0 0 0.2373 -9 437.96)">
	</image>
</g>
<g>
	
		<image style="overflow:visible;enable-background:new    ;" width="692" height="692" xlink:href="1F0D6E17.png"  transform="matrix(0.2386 0 0 0.2386 384.4 466.2898)">
	</image>
</g>
<g>
	
		<image style="overflow:visible;enable-background:new    ;" width="696" height="700" xlink:href="1F0D6E14.png"  transform="matrix(0.2373 0 0 0.2373 423.3545 419.8498)">
	</image>
</g>
<g>
	
		<image style="overflow:visible;enable-background:new    ;" width="696" height="700" xlink:href="1F0D6E1D.png"  transform="matrix(0.2376 0 0 0.2376 675.2462 -36.1002)">
	</image>
</g>
<g>
	
		<image style="overflow:visible;enable-background:new    ;" width="696" height="696" xlink:href="1F0D6E1F.png"  transform="matrix(0.2386 0 0 0.2386 55.2 12.42)">
	</image>
</g>
<g>
	
		<image style="overflow:visible;enable-background:new    ;" width="692" height="696" xlink:href="7CF0E83C.png"  transform="matrix(0.2376 0 0 0.2376 23.7952 -10.16)">
	</image>
</g>
<g>
	
		<image style="overflow:visible;enable-background:new    ;" width="700" height="700" xlink:href="7CF0E83B.png"  transform="matrix(0.2373 0 0 0.2373 711.9709 15.0398)">
	</image>
</g>
<rect x="-55" y="38.9" class="st7" width="91" height="64"/>
<g>
	
		<image style="overflow:visible;enable-background:new    ;" width="1667" height="821" xlink:href="1F0D6E0F.png"  transform="matrix(0.2385 0 0 0.2385 316.3843 198.96)">
	</image>
	<g>
		<path class="st1" d="M382.6,321.4l18.9-6v18c0,1.6-0.9,3.1-2.8,4.2c-1.9,1.2-4.1,1.8-6.7,1.8h-28.4c-2.6,0-4.7-0.6-6.3-1.9
			c-1.6-1.3-2.7-2.6-3.2-4.1v-72c0-1.6,0.9-3.1,2.8-4.2c1.9-1.2,4.1-1.8,6.7-1.8H392c2.6,0,4.8,0.6,6.7,1.8c1.9,1.2,2.8,2.6,2.8,4.2
			v12l-18.9,6v-15h-18.9l9.5,3v63.1h9.5v-9.1H382.6z"/>
		<path class="st1" d="M436.3,321.4l18.9-6v18c0,1.6-0.9,3.1-2.8,4.2c-1.9,1.2-4.1,1.8-6.7,1.8h-28.4c-2.6,0-4.7-0.6-6.3-1.9
			c-1.6-1.3-2.7-2.6-3.2-4.1v-72c0-1.6,0.9-3.1,2.8-4.2c1.9-1.2,4.1-1.8,6.7-1.8h28.4c2.6,0,4.8,0.6,6.7,1.8
			c1.9,1.2,2.8,2.6,2.8,4.2v12l-18.9,6v-15h-18.9l9.5,3v63.1h9.5v-9.1H436.3z"/>
		<path class="st1" d="M505.7,297.4h-44.2v-9h44.2V297.4z"/>
		<path class="st1" d="M546.7,339.4h-18.9v-75H512v-9h50.5v9h-25.3l9.5,3V339.4z"/>
		<path class="st1" d="M616.2,261.3v78h-18.9v-33l-18.9,6h9.5v27H569v-81l-3.2-3h41c2.6,0,4.7,0.6,6.3,1.9
			C614.6,258.5,615.7,259.9,616.2,261.3z M597.3,264.3h-9.5V300l9.5-2.7V264.3z"/>
		<path class="st1" d="M641.4,339.4h-18.9v-81l-3.2-3h41c2.6,0,4.8,0.6,6.7,1.8c1.9,1.2,2.8,2.6,2.8,4.2v78h-18.9v-75H632l9.5,3
			L641.4,339.4L641.4,339.4z"/>
	</g>
</g>
<polyline class="st8" points="841.9,448.2 809.7,448.2 809.7,538.2 841.9,538.2 "/>
<rect x="361.7" y="0" class="st9" width="92" height="78.9"/>
</svg>
